<svg display='none' xmlns='http://www.w3.org/2000/svg'>
    <symbol viewBox="0 0 8 14" id='arrow'>
      <g>
        <path d="M0.646447 0.646447C0.841709 0.451184 1.15829 0.451184 1.35355 0.646447L7.35355 6.64645C7.54882 6.84171 7.54882 7.15829 7.35355 7.35355L1.35355 13.3536C1.15829 13.5488 0.841709 13.5488 0.646447 13.3536C0.451184 13.1583 0.451184 12.8417 0.646447 12.6464L6.29289 7L0.646447 1.35355C0.451184 1.15829 0.451184 0.841709 0.646447 0.646447Z"/>
      </g>
    </symbol>
    <symbol viewBox="0 0 512 512" id='heart'>
      <g>
        <path d="M365.4,59.628c60.56,0,109.6,49.03,109.6,109.47c0,109.47-109.6,171.8-219.06,281.271 C146.47,340.898,37,278.568,37,169.099c0-60.44,49.04-109.47,109.47-109.47c54.73,0,82.1,27.37,109.47,82.1 C283.3,86.999,310.67,59.628,365.4,59.628z"/>
      </g>
    </symbol>
    <symbol viewBox="0 0 14 14" id='close'>
      <g>
        <path d="M12.2929 13.7071C12.6834 14.0976 13.3166 14.0976 13.7071 13.7071C14.0976 13.3166 14.0976 12.6834 13.7071 12.2929L12.2929 13.7071ZM1.70711 0.292893C1.31658 -0.0976311 0.683417 -0.0976311 0.292893 0.292893C-0.0976311 0.683417 -0.0976311 1.31658 0.292893 1.70711L1.70711 0.292893ZM13.7071 1.70711C14.0976 1.31658 14.0976 0.683417 13.7071 0.292893C13.3166 -0.0976311 12.6834 -0.0976311 12.2929 0.292893L13.7071 1.70711ZM0.292893 12.2929C-0.0976311 12.6834 -0.0976311 13.3166 0.292893 13.7071C0.683417 14.0976 1.31658 14.0976 1.70711 13.7071L0.292893 12.2929ZM13.7071 12.2929L1.70711 0.292893L0.292893 1.70711L12.2929 13.7071L13.7071 12.2929ZM12.2929 0.292893L0.292893 12.2929L1.70711 13.7071L13.7071 1.70711L12.2929 0.292893ZM0.292893 1.70711L6.29289 7.70711L7.70711 6.29289L1.70711 0.292893L0.292893 1.70711ZM6.29289 7.70711L12.2929 13.7071L13.7071 12.2929L7.70711 6.29289L6.29289 7.70711Z"/>      
      </g>
    </symbol>
</svg>